<svg width="34" height="74" viewBox="0 0 34 74" fill="none" xmlns="http://www.w3.org/2000/svg">
<path d="M30.456 3.8H33.456V0.799995H30.456V3.8ZM30.456 71V74H33.456V71H30.456ZM17.976 71H14.976V74H17.976V71ZM17.976 14.264H20.976V11.264H17.976V14.264ZM3.768 14.264H0.768V17.264H3.768V14.264ZM3.768 3.8V0.799995H0.768V3.8H3.768ZM27.456 3.8V71H33.456V3.8H27.456ZM30.456 68H17.976V74H30.456V68ZM20.976 71V14.264H14.976V71H20.976ZM17.976 11.264H3.768V17.264H17.976V11.264ZM6.768 14.264V3.8H0.768V14.264H6.768ZM3.768 6.8H30.456V0.799995H3.768V6.8Z" fill="url(#paint0_linear)"/>
<defs>
<linearGradient id="paint0_linear" x1="57" y1="-35.0001" x2="-1.33372" y2="-33.608" gradientUnits="userSpaceOnUse">
<stop stop-color="#2FDFD4"/>
<stop offset="0.478626" stop-color="#2FCDDF"/>
<stop offset="1" stop-color="#59AFFF"/>
</linearGradient>
</defs>
</svg>
