<svg width="60" height="75" viewBox="0 0 60 75" fill="none" xmlns="http://www.w3.org/2000/svg">
<path d="M56.896 61.44H59.896V58.44H56.896V61.44ZM56.896 72V75H59.896V72H56.896ZM7.36 72H4.36V75H7.36V72ZM7.36 63.648L5.29416 61.4726L4.36 62.3597V63.648H7.36ZM34.048 38.304L36.1139 40.4794L36.1227 40.4709L34.048 38.304ZM40.096 30.816L37.4127 29.4744L37.4045 29.4907L37.3966 29.5072L40.096 30.816ZM38.56 17.184L40.4166 14.8275V14.8275L38.56 17.184ZM13.504 21.696L11.6749 24.0739L14.0356 25.8898L15.8686 23.5423L13.504 21.696ZM4.768 14.976L2.36276 13.183L0.596657 15.5522L2.93887 17.3539L4.768 14.976ZM15.328 6.816L16.5242 9.56721L16.5335 9.56316L16.5428 9.55905L15.328 6.816ZM47.776 9.024L45.9104 11.3733L45.9104 11.3733L47.776 9.024ZM52 33.408L49.2954 32.1098H49.2954L52 33.408ZM43.168 44.352L41.1119 42.1674L41.1057 42.1732L41.0996 42.179L43.168 44.352ZM25.216 61.44L23.1476 59.267L17.7131 64.44H25.216V61.44ZM53.896 61.44V72H59.896V61.44H53.896ZM56.896 69H7.36V75H56.896V69ZM10.36 72V63.648H4.36V72H10.36ZM9.42584 65.8234L36.1138 40.4794L31.9822 36.1286L5.29416 61.4726L9.42584 65.8234ZM36.1227 40.4709C39.2207 37.5047 41.5394 34.7154 42.7954 32.1248L37.3966 29.5072C36.6046 31.1406 34.8913 33.3433 31.9733 36.1371L36.1227 40.4709ZM42.7793 32.1576C44.0439 29.6285 44.728 27.0278 44.728 24.384H38.728C38.728 25.9642 38.3241 27.6515 37.4127 29.4744L42.7793 32.1576ZM44.728 24.384C44.728 20.5007 43.3756 17.1589 40.4166 14.8275L36.7034 19.5405C37.9684 20.5371 38.728 21.9953 38.728 24.384H44.728ZM40.4166 14.8275C37.5618 12.5783 33.6826 11.688 29.248 11.688V17.688C33.0054 17.688 35.3342 18.4617 36.7034 19.5405L40.4166 14.8275ZM29.248 11.688C21.6382 11.688 15.4487 14.3308 11.1394 19.8497L15.8686 23.5423C18.8553 19.7172 23.1618 17.688 29.248 17.688V11.688ZM15.3331 19.3181L6.59713 12.5981L2.93887 17.3539L11.6749 24.0739L15.3331 19.3181ZM7.17324 16.769C9.45496 13.7081 12.5401 11.2994 16.5242 9.56721L14.1318 4.06479C9.28385 6.1726 5.32904 9.20385 2.36276 13.183L7.17324 16.769ZM16.5428 9.55905C20.5956 7.76422 25.1667 6.84 30.304 6.84V0.839996C24.4333 0.839996 19.0204 1.89977 14.1132 4.07295L16.5428 9.55905ZM30.304 6.84C37.1356 6.84 42.2347 8.45442 45.9104 11.3733L49.6417 6.67467C44.6133 2.68158 38.0644 0.839996 30.304 0.839996V6.84ZM45.9104 11.3733C49.4891 14.2153 51.304 18.0243 51.304 23.136H57.304C57.304 16.3437 54.7669 10.7447 49.6416 6.67466L45.9104 11.3733ZM51.304 23.136C51.304 26.3475 50.6315 29.3264 49.2954 32.1098L54.7046 34.7062C56.4405 31.0896 57.304 27.2205 57.304 23.136H51.304ZM49.2954 32.1098C47.992 34.8253 45.3533 38.1755 41.1119 42.1674L45.2241 46.5366C49.6867 42.3365 52.936 38.3907 54.7046 34.7062L49.2954 32.1098ZM41.0996 42.179L23.1476 59.267L27.2844 63.613L45.2364 46.525L41.0996 42.179ZM25.216 64.44H56.896V58.44H25.216V64.44Z" fill="url(#paint0_linear)"/>
<defs>
<linearGradient id="paint0_linear" x1="58" y1="-34.0001" x2="-0.333717" y2="-32.608" gradientUnits="userSpaceOnUse">
<stop stop-color="#2FDFD4"/>
<stop offset="0.478626" stop-color="#2FCDDF"/>
<stop offset="1" stop-color="#59AFFF"/>
</linearGradient>
</defs>
</svg>
