<svg width="49" height="51" viewBox="0 0 49 51" fill="none" xmlns="http://www.w3.org/2000/svg">
<g clip-path="url(#clip0)">
<path fill-rule="evenodd" clip-rule="evenodd" d="M46.9175 12.7687C48.2956 14.3896 49.0459 16.4541 49 18.595C48.9847 19.2067 48.9081 19.8184 48.7856 20.476L48.7091 20.7818C47.8822 23.8097 45.4628 26.18 42.4156 26.9599H42.385C42.3238 26.9752 42.2625 26.9867 42.2013 26.9982C42.14 27.0096 42.0788 27.0211 42.0175 27.0364L41.9409 27.0517C41.8338 27.0823 41.7266 27.0976 41.6194 27.1129L41.5122 27.1282C41.4586 27.1358 41.4089 27.1434 41.3591 27.1511L41.2709 27.1645L41.2059 27.174H41.1753C41.1294 27.1893 41.0988 27.1893 41.0681 27.1893C41.0222 27.1893 40.9725 27.1932 40.9227 27.197L40.9227 27.197C40.8729 27.2008 40.8231 27.2046 40.7772 27.2046H40.7466H40.6241H40.3484H40.3025H40.2259H40.1647H40.0269H39.9963C39.958 27.2046 39.9159 27.2008 39.8738 27.197L39.8737 27.197C39.8316 27.1932 39.7895 27.1893 39.7513 27.1893C39.7053 27.174 39.6594 27.174 39.6134 27.174C39.5599 27.1664 39.5063 27.1626 39.4527 27.1588C39.3991 27.1549 39.3455 27.1511 39.2919 27.1435H39.2306C38.955 27.1129 38.6641 27.067 38.3731 27.0058L37.6841 26.8223L37.6534 26.807C37.6151 26.7943 37.5794 26.7842 37.5453 26.7745L37.5452 26.7745C37.4976 26.761 37.453 26.7484 37.4084 26.7306L37.3778 26.7153C37.1481 26.6388 36.9184 26.5471 36.7041 26.4553L36.6122 26.4247C36.5816 26.4094 36.5548 26.398 36.528 26.3865C36.5012 26.375 36.4744 26.3635 36.4438 26.3483C36.4208 26.3406 36.4016 26.3291 36.3825 26.3177C36.3634 26.3062 36.3442 26.2947 36.3213 26.2871C36.2983 26.2718 36.2753 26.2603 36.2523 26.2489C36.2294 26.2374 36.2064 26.2259 36.1834 26.2106C36.1605 26.1953 36.1375 26.1839 36.1145 26.1724C36.0916 26.1609 36.0686 26.1495 36.0456 26.1342L35.9997 26.1036L35.9078 26.0577C35.8695 26.0348 35.8274 26.0118 35.7853 25.9889C35.7432 25.9659 35.7011 25.943 35.6628 25.9201L35.5709 25.8589C35.5653 25.8551 35.5594 25.8512 35.5534 25.847C35.5477 25.8432 35.542 25.8392 35.536 25.8351C35.4961 25.8075 35.4493 25.7752 35.4025 25.7519L35.3106 25.6907C35.2638 25.6673 35.217 25.635 35.1771 25.6074C35.1647 25.5989 35.153 25.5909 35.1422 25.5836L35.0503 25.5225L34.8666 25.3848L34.8053 25.339L34.5756 25.1555L34.4991 25.0943C34.4378 25.0484 34.3766 25.0025 34.3306 24.9567L34.2388 24.8802L34.1009 24.7426L34.0244 24.6661C34.0014 24.6355 33.9746 24.6087 33.9478 24.582C33.921 24.5552 33.8942 24.5285 33.8713 24.4979L33.81 24.4367L33.81 24.4367C33.7334 24.3602 33.6722 24.2991 33.6109 24.2226L33.5497 24.1614L33.5344 24.1309C33.5114 24.1079 33.4923 24.085 33.4731 24.062C33.454 24.0391 33.4348 24.0162 33.4119 23.9932C33.3966 23.9626 33.3659 23.9168 33.3353 23.8862C33.32 23.8633 33.3009 23.8404 33.2818 23.8174L33.2817 23.8174L33.2817 23.8173C33.2625 23.7944 33.2434 23.7715 33.2281 23.7486L33.2128 23.7333C33.2052 23.718 33.1937 23.7065 33.1822 23.695C33.1707 23.6836 33.1592 23.6721 33.1516 23.6568C33.1286 23.6186 33.1018 23.5842 33.075 23.5498C33.0482 23.5153 33.0214 23.4809 32.9984 23.4427L32.9372 23.3357C32.9142 23.3051 32.8951 23.2745 32.8759 23.2439L32.8759 23.2439L32.8759 23.2438C32.8568 23.2133 32.8376 23.1827 32.8147 23.1522L32.7534 23.0451C32.7381 23.0145 32.7228 22.9878 32.7075 22.961C32.6922 22.9342 32.6769 22.9075 32.6616 22.8769C32.6539 22.8616 32.6424 22.8425 32.631 22.8234L32.6309 22.8234L32.6308 22.8232C32.6194 22.8041 32.6079 22.7851 32.6003 22.7698C32.585 22.7393 32.5659 22.7087 32.5467 22.6781C32.5276 22.6475 32.5084 22.6169 32.4931 22.5863L32.4472 22.5099L32.3094 22.2346L32.2788 22.1582C32.2481 22.097 32.2175 22.0205 32.1869 21.9441L32.1409 21.8523C32.1318 21.8159 32.1173 21.7849 32.1038 21.7562C32.0946 21.7366 32.0859 21.718 32.0797 21.6994L30.9159 22.8616L30.9619 22.9075C31.605 23.5498 31.9419 24.4061 31.9419 25.3084C31.9266 26.2106 31.5744 27.0517 30.9313 27.694C30.2881 28.3363 29.4306 28.6727 28.5272 28.6727C27.6238 28.6574 26.7816 28.3057 26.1384 27.6634L26.0925 27.6175L15.9403 37.8022L19.9981 41.8547C20.4269 42.2982 20.4269 43.0016 19.9981 43.4298L17.5788 45.846C17.1347 46.2742 16.4303 46.2742 16.0016 45.846L14.3631 44.2097L13.5209 45.0508L15.1594 46.6871C15.5881 47.1305 15.5881 47.834 15.1594 48.2622L12.7247 50.6784C12.5103 50.8925 12.2347 50.9995 11.9438 50.9995C11.6681 50.9995 11.3772 50.8925 11.1628 50.6784L7.105 46.6259L5.11438 48.6139C4.91531 48.8127 4.62437 48.935 4.33344 48.935C4.0425 48.935 3.76688 48.828 3.5525 48.6139L0.321562 45.3872C-0.107188 44.9437 -0.107188 44.2403 0.321562 43.8121L21.3916 22.831L21.3763 22.8157C20.0747 21.5006 20.0747 19.3597 21.3763 18.0445C22.0041 17.4022 22.8616 17.0352 23.765 17.0352C24.6684 17.0352 25.5259 17.3717 26.1691 18.0139L26.1844 18.0292L27.3481 16.867C27.3117 16.8579 27.2807 16.8434 27.2519 16.8299C27.2322 16.8207 27.2136 16.812 27.195 16.8058L27.1031 16.76C27.0419 16.7294 26.9653 16.6988 26.8888 16.6682L26.8888 16.6682L26.8122 16.6376L26.5366 16.5L26.46 16.4541C26.4294 16.4388 26.3988 16.4197 26.3681 16.4006C26.3375 16.3815 26.3069 16.3624 26.2763 16.3471C26.2609 16.3394 26.2418 16.328 26.2227 16.3165C26.2035 16.305 26.1844 16.2935 26.1691 16.2859C26.1384 16.2706 26.1117 16.2553 26.0849 16.24C26.0581 16.2247 26.0313 16.2094 26.0006 16.1941L25.9853 16.1788C25.97 16.1712 25.9547 16.1597 25.9394 16.1483C25.9241 16.1368 25.9088 16.1253 25.8934 16.1177C25.8628 16.0947 25.8322 16.0756 25.8016 16.0565C25.7709 16.0374 25.7403 16.0183 25.7097 15.9953L25.6025 15.9342C25.5642 15.9112 25.5298 15.8845 25.4953 15.8577L25.4953 15.8577C25.4608 15.8309 25.4264 15.8042 25.3881 15.7812C25.3575 15.7507 25.3422 15.7354 25.3116 15.7201L25.2809 15.7048C25.258 15.6895 25.235 15.6704 25.212 15.6513C25.1891 15.6321 25.1661 15.613 25.1431 15.5977C25.1125 15.5824 25.0666 15.5519 25.0359 15.5213C25.013 15.4983 24.99 15.4792 24.967 15.4601C24.9441 15.441 24.9211 15.4219 24.8981 15.3989L24.8062 15.3225C24.768 15.2919 24.7335 15.2575 24.6991 15.2231L24.6991 15.2231L24.6991 15.2231L24.6991 15.2231C24.6646 15.1887 24.6302 15.1543 24.5919 15.1237L24.5306 15.0625C24.4694 15.0166 24.4082 14.9555 24.3622 14.9096L24.3622 14.9096L24.2856 14.8331L24.1478 14.6955L24.0713 14.6037C24.0483 14.5732 24.0253 14.5464 24.0023 14.5196L24.0023 14.5196C23.9794 14.4929 23.9564 14.4661 23.9334 14.4355L23.8722 14.3744L23.6884 14.145L23.6425 14.0838L23.5047 13.9003C23.497 13.885 23.4855 13.8697 23.4741 13.8544C23.4626 13.8391 23.4511 13.8238 23.4434 13.8085C23.4281 13.778 23.409 13.7512 23.3898 13.7244C23.3707 13.6977 23.3516 13.6709 23.3363 13.6403C23.3286 13.625 23.3171 13.6097 23.3056 13.5944C23.2941 13.5791 23.2827 13.5639 23.275 13.5486C23.2678 13.5377 23.2597 13.526 23.2512 13.5137C23.2235 13.4738 23.1912 13.4271 23.1678 13.3803L23.1066 13.2886C23.0836 13.2504 23.0606 13.2083 23.0377 13.1663C23.0147 13.1242 22.9917 13.0822 22.9688 13.0439L22.9228 12.9522L22.9075 12.9216L22.9075 12.9216C22.8769 12.8757 22.8462 12.8298 22.8309 12.7839C22.8156 12.761 22.8041 12.7381 22.7927 12.7151L22.7926 12.7151C22.7812 12.6922 22.7697 12.6692 22.7544 12.6463C22.7238 12.6004 22.7084 12.5699 22.6931 12.524C22.6778 12.4934 22.6663 12.4666 22.6548 12.4399C22.6434 12.4131 22.6319 12.3863 22.6166 12.3558L22.5859 12.264C22.5654 12.2128 22.5449 12.1624 22.5246 12.1125L22.5244 12.1118L22.5243 12.1117L22.5243 12.1117C22.4536 11.9379 22.385 11.7691 22.3256 11.5911L22.3103 11.5606C22.295 11.5223 22.2835 11.4841 22.272 11.4459C22.2605 11.4076 22.2491 11.3694 22.2337 11.3312L22.2184 11.3006C22.1419 11.0865 22.0806 10.8571 22.0347 10.6277C21.9581 10.3219 21.9122 10.0313 21.8816 9.75606V9.69489C21.8739 9.64137 21.8701 9.58785 21.8662 9.53432C21.8624 9.4808 21.8586 9.42728 21.8509 9.37375C21.8356 9.32788 21.8356 9.28201 21.8356 9.23614V9.23612C21.8203 9.15966 21.8203 9.06791 21.8203 8.99145V8.96086V8.82323V8.76206V8.6856V8.63972V8.36446V8.24212V8.21154C21.8203 8.11978 21.8203 8.01274 21.8356 7.92098C21.8356 7.90569 21.8395 7.88657 21.8433 7.86746C21.8471 7.84834 21.8509 7.82923 21.8509 7.81394V7.78335C21.8509 7.68835 21.863 7.60539 21.8764 7.5131L21.8816 7.4775L21.8969 7.37046C21.9045 7.31693 21.916 7.26341 21.9275 7.20989C21.939 7.15636 21.9505 7.10284 21.9581 7.04932L21.9734 6.97286C21.9888 6.85052 22.0194 6.72818 22.05 6.60584V6.59055C22.8309 3.54737 25.2044 1.13118 28.2362 0.305395L28.5119 0.244225C29.1244 0.0913018 29.7522 0.0148401 30.38 -0.000452286C32.5238 -0.0463293 34.5909 0.702996 36.2141 2.07931L36.2906 2.00284L36.3213 1.98755C36.3927 1.93658 36.4506 1.8856 36.5084 1.83462C36.5373 1.80914 36.5663 1.78365 36.5969 1.75817L36.6428 1.71229C36.6888 1.68171 36.7309 1.6473 36.773 1.61289C36.8151 1.57848 36.8572 1.54407 36.9031 1.51349L36.9491 1.46761C37.0256 1.40644 37.1175 1.34527 37.2094 1.2841L37.2553 1.25352C37.3625 1.19235 37.4544 1.13118 37.5462 1.07001L37.6075 1.03943C37.6628 1.00258 37.7237 0.971286 37.7868 0.938853L37.7869 0.938825L37.7869 0.938806C37.8286 0.917409 37.8712 0.895518 37.9138 0.871211L37.9291 0.855919C38.6181 0.488903 39.3684 0.244225 40.1341 0.106594L40.18 0.0913018L40.5016 0.0454247L40.5934 0.0301324C40.6853 0.0148401 40.7925 -0.000452286 40.8844 -0.000452286H40.9916H41.0375H41.1141H41.2059H41.2519H41.405H41.65L41.6653 0.0454247H41.7266H41.7725H41.7878C41.8358 0.0454247 41.8797 0.049604 41.9215 0.0535929C41.9597 0.0572343 41.9963 0.0607171 42.0328 0.0607171H42.0634C42.0941 0.0760094 42.14 0.0760094 42.1706 0.0760094C42.2146 0.0833375 42.2587 0.087154 42.301 0.0908243C42.347 0.0948134 42.3911 0.0986298 42.4309 0.106594H42.4616C42.4869 0.106594 42.5075 0.111228 42.5261 0.115395C42.5412 0.118797 42.555 0.121886 42.5688 0.121886C42.607 0.129533 42.6491 0.137179 42.6913 0.144825L42.6914 0.144848C42.7334 0.152486 42.7755 0.160125 42.8138 0.167764H42.8444C42.8697 0.167764 42.8903 0.172398 42.9089 0.176564C42.924 0.179966 42.9378 0.183056 42.9516 0.183056L43.1813 0.228933H43.1966C43.2195 0.236579 43.2387 0.240402 43.2578 0.244225C43.277 0.248048 43.2961 0.251871 43.3191 0.259518C43.3573 0.267164 43.3918 0.278634 43.4263 0.290103C43.4607 0.301572 43.4952 0.313041 43.5334 0.320687H43.5487L43.6866 0.366564C43.7172 0.37421 43.7478 0.385679 43.7784 0.397149C43.8091 0.408618 43.8397 0.420087 43.8703 0.427733C43.9009 0.435377 43.9277 0.446842 43.9545 0.458308L43.9545 0.458318L43.9546 0.458328C43.9813 0.469794 44.0081 0.481259 44.0388 0.488903C44.0617 0.496549 44.0885 0.508018 44.1153 0.519487C44.1421 0.530957 44.1689 0.542426 44.1919 0.550072C44.2225 0.565364 44.2531 0.576834 44.2838 0.588303C44.3144 0.599772 44.345 0.611241 44.3756 0.626534C44.3986 0.634172 44.4177 0.64181 44.4368 0.649449L44.4369 0.649472C44.456 0.657118 44.4752 0.664765 44.4981 0.672411L44.5134 0.687703C44.544 0.702978 44.5784 0.718254 44.6129 0.733529L44.613 0.733574C44.6474 0.748869 44.6819 0.764163 44.7125 0.779457C44.7584 0.79475 44.7891 0.810042 44.8197 0.825334L44.8503 0.840627C44.8809 0.855916 44.9154 0.875027 44.9498 0.894139L44.9499 0.894159L44.95 0.89421C44.9844 0.913305 45.0188 0.932397 45.0494 0.947673L45.1413 0.99355L45.1719 1.00884C45.2025 1.03178 45.237 1.0509 45.2714 1.07001C45.3059 1.08913 45.3403 1.10824 45.3709 1.13118C45.3862 1.13883 45.3977 1.14647 45.4092 1.15412C45.4207 1.16177 45.4322 1.16941 45.4475 1.17706L45.4781 1.19235C45.5394 1.22294 45.6159 1.26881 45.6772 1.31469C45.7078 1.34527 45.7231 1.36057 45.7537 1.37586L45.7844 1.39115L45.9681 1.52878C45.9834 1.53643 45.9949 1.5479 46.0064 1.55937C46.0179 1.57084 46.0294 1.58231 46.0447 1.58995L46.0753 1.60524C46.1212 1.65111 46.1825 1.69697 46.2437 1.74284L46.2438 1.74287C46.2591 1.75817 46.2744 1.76964 46.2897 1.78111C46.305 1.79258 46.3203 1.80405 46.3356 1.81934L46.3662 1.83463C46.3892 1.85757 46.416 1.88051 46.4428 1.90344C46.4696 1.92638 46.4964 1.94932 46.5194 1.97226C46.5347 1.98755 46.5538 2.00284 46.573 2.01814C46.5921 2.03343 46.6113 2.04872 46.6266 2.06401L46.6572 2.0946L46.7797 2.21694L46.9022 2.33928L46.9328 2.36986C46.9634 2.41574 46.9941 2.44632 47.0247 2.47691C47.0553 2.53808 47.1012 2.58395 47.1472 2.62983L47.1778 2.66042C47.1931 2.67571 47.2046 2.691 47.2161 2.70629C47.2276 2.72159 47.2391 2.73688 47.2544 2.75217C47.3003 2.79805 47.3463 2.85922 47.3922 2.92039L47.4228 2.95097C47.4305 2.96626 47.442 2.97773 47.4534 2.9892C47.4649 3.00067 47.4764 3.01214 47.4841 3.02743L47.6219 3.21094L47.6525 3.22623C47.6831 3.25682 47.6984 3.27211 47.7138 3.30269C47.7367 3.33328 47.7597 3.36769 47.7827 3.40209C47.8056 3.4365 47.8286 3.47091 47.8516 3.50149L47.8669 3.53208C47.8745 3.54737 47.8822 3.55884 47.8898 3.57031L47.8899 3.57036C47.8975 3.58182 47.9052 3.59327 47.9128 3.60854C47.945 3.65145 47.9697 3.69436 47.9975 3.74255L47.9975 3.74263C48.0093 3.76311 48.0216 3.78455 48.0353 3.80734L48.0506 3.83793L48.0966 3.92968C48.1119 3.96027 48.131 3.99469 48.1502 4.02911L48.1502 4.02914C48.1693 4.06353 48.1884 4.09791 48.2038 4.12848L48.2191 4.15907C48.2344 4.20492 48.2497 4.2355 48.265 4.26607L48.265 4.26611C48.2803 4.2967 48.2956 4.33111 48.3109 4.36551L48.311 4.36574C48.3263 4.40007 48.3416 4.4344 48.3569 4.46491L48.3722 4.4802C48.3798 4.50314 48.3875 4.52226 48.3952 4.54137C48.4028 4.56049 48.4105 4.57961 48.4181 4.60254C48.4334 4.63313 48.4449 4.66371 48.4564 4.6943C48.4679 4.72488 48.4794 4.75547 48.4947 4.78605C48.5023 4.81664 48.5138 4.8434 48.5253 4.87016C48.5368 4.89692 48.5483 4.92368 48.5559 4.95427C48.5866 5.01544 48.6019 5.06131 48.6172 5.12248C48.626 5.16649 48.6399 5.20543 48.653 5.24223C48.6627 5.26936 48.6719 5.29532 48.6784 5.32128L48.7244 5.45891V5.47421C48.755 5.55067 48.7703 5.61184 48.7856 5.6883C48.7933 5.71124 48.7971 5.73035 48.8009 5.74947C48.8048 5.76858 48.8086 5.7877 48.8162 5.81064V5.84122L48.8622 6.07061C48.8622 6.09584 48.8668 6.11645 48.871 6.13498L48.871 6.13502C48.8744 6.15016 48.8775 6.16391 48.8775 6.17765V6.20824C48.8852 6.24647 48.8928 6.28852 48.9005 6.33058C48.9081 6.37263 48.9158 6.41469 48.9234 6.45292C48.9234 6.47815 48.9281 6.49876 48.9322 6.51729L48.9323 6.51733C48.9357 6.53247 48.9388 6.54622 48.9388 6.55996V6.57526C48.9464 6.62113 48.9502 6.66319 48.9541 6.70524C48.9579 6.74729 48.9617 6.78935 48.9694 6.83523C48.9847 6.8811 48.9847 6.91169 48.9847 6.95756V6.97286C48.9847 7.01104 48.9885 7.05305 48.9923 7.09505L48.9923 7.09519L48.9924 7.09533C48.9962 7.13734 49 7.17935 49 7.21753V7.23283V7.2787V7.33987V7.37046V7.61513V7.76806V7.81394V7.8904V7.96686V8.01274V8.11978C48.9924 8.16562 48.9885 8.21527 48.9847 8.26493L48.9847 8.26506L48.9847 8.26519C48.9809 8.31485 48.977 8.3645 48.9694 8.41034L48.9541 8.50209L48.9081 8.82323L48.8928 8.86911C48.755 9.63372 48.51 10.383 48.1425 11.0712L48.1272 11.0865L47.9434 11.4076L47.9281 11.4382C47.8669 11.5453 47.8056 11.637 47.7444 11.7288L47.7138 11.7747L47.53 12.0499L47.4994 12.0958C47.4381 12.1875 47.3769 12.264 47.3003 12.3558L47.2544 12.4016C47.2161 12.4475 47.1778 12.4896 47.1395 12.5316C47.1012 12.5737 47.063 12.6157 47.0247 12.6616L46.9941 12.6922L46.9175 12.7687ZM16.7825 43.4757L17.6247 42.6346L14.3784 39.3926L8.6975 45.0661L11.9591 48.3234L12.8013 47.4823L11.1628 45.846C10.7341 45.4025 10.7341 44.6991 11.1628 44.2709L13.5822 41.8547C14.0262 41.4265 14.7306 41.4265 15.1594 41.8547L16.7825 43.4757ZM2.67969 44.592L4.33344 46.2436L24.5 26.0577L22.8769 24.4214L2.67969 44.592ZM27.7003 26.1036C28.1597 26.5623 28.8947 26.5623 29.3541 26.1036C29.8134 25.6448 29.8134 24.8955 29.3541 24.452L24.5153 19.6196C24.2856 19.3902 23.9947 19.2832 23.6884 19.2832C23.3822 19.2832 23.0913 19.3902 22.8616 19.6196C22.6472 19.8337 22.5247 20.1396 22.5247 20.4454C22.5247 20.7513 22.6472 21.0571 22.8616 21.2712L27.7003 26.1036ZM44.5594 13.5333L44.4828 13.4568C44.1 13.0439 44.1 12.4016 44.5134 11.897L44.5135 11.8969L44.5136 11.8968C44.5748 11.8357 44.6207 11.7899 44.6819 11.7441C44.7099 11.7217 44.7379 11.7014 44.7651 11.6816L44.7653 11.6815L44.7654 11.6814C44.8125 11.6472 44.8575 11.6146 44.8963 11.5759L44.9116 11.5606L44.9497 11.5303L44.9497 11.5302C45.0092 11.4832 45.0599 11.443 45.1106 11.3923C45.1872 11.3312 45.2331 11.2853 45.2943 11.2242L45.2944 11.2241L45.3403 11.1783C45.3562 11.1623 45.3722 11.1483 45.3874 11.1348C45.4163 11.1093 45.4428 11.0859 45.4628 11.0559L45.5241 10.9947C45.547 10.9718 45.57 10.945 45.593 10.9183C45.6159 10.8915 45.6389 10.8648 45.6619 10.8418C45.6925 10.8265 45.7078 10.8112 45.7231 10.7807L45.7384 10.7501C45.7461 10.7348 45.7576 10.7233 45.769 10.7119L45.7691 10.7118L45.7691 10.7118C45.7806 10.7004 45.792 10.6889 45.7997 10.6736C45.8226 10.6431 45.8416 10.6165 45.8607 10.5898L45.8609 10.5895C45.8801 10.5627 45.8992 10.536 45.9222 10.5054L45.9528 10.4442C45.9861 10.411 46.0114 10.3697 46.0344 10.332L46.0344 10.332C46.0432 10.3177 46.0516 10.3039 46.06 10.2913L46.1059 10.2148C46.1213 10.1919 46.1327 10.1728 46.1442 10.1536C46.1557 10.1345 46.1672 10.1154 46.1825 10.0925L46.1978 10.0619C46.2131 10.0466 46.2284 10.016 46.2438 9.98545C46.2514 9.9778 46.2552 9.96633 46.2591 9.95486C46.2629 9.94339 46.2667 9.93192 46.2744 9.92428L46.2897 9.89369C46.3005 9.87206 46.3113 9.85235 46.3215 9.83387L46.3216 9.83376C46.3401 9.80002 46.3564 9.7704 46.3662 9.74077L46.3816 9.69489C46.6878 9.00674 46.8563 8.24212 46.8563 7.4928V7.44692V7.24812C46.8409 7.20224 46.8409 7.17166 46.8409 7.12578V7.06461V7.00344C46.8333 6.96521 46.8295 6.92698 46.8256 6.88875C46.8218 6.85052 46.818 6.81229 46.8103 6.77406V6.75876C46.7797 6.49879 46.7338 6.25412 46.6572 6.00944C46.644 5.97639 46.6336 5.94334 46.6236 5.91152L46.6236 5.91148C46.6105 5.8697 46.598 5.83006 46.5806 5.79535L46.5653 5.74947C46.5577 5.72657 46.5462 5.69986 46.5347 5.67315L46.5347 5.67301L46.5346 5.67287C46.5232 5.64615 46.5117 5.61944 46.5041 5.59655L46.4734 5.50479L46.4275 5.41304L46.3969 5.35187C46.3816 5.30599 46.3663 5.27541 46.3509 5.24482L46.305 5.16836C46.2897 5.13778 46.2744 5.11101 46.2591 5.08425L46.259 5.08411C46.2437 5.0574 46.2284 5.03068 46.2131 5.00014L46.1825 4.95427C46.1751 4.93943 46.1676 4.92369 46.16 4.90749L46.16 4.90745C46.1361 4.85687 46.1101 4.80179 46.0753 4.75547L46.06 4.74017C46.037 4.70194 46.0141 4.66754 45.9911 4.63313C45.9681 4.59872 45.9452 4.56431 45.9222 4.52608L45.9069 4.51079C45.884 4.48032 45.8573 4.44605 45.8306 4.41178L45.8305 4.41167L45.8304 4.41144L45.8301 4.41116C45.8034 4.37683 45.7767 4.34251 45.7537 4.31199C45.7231 4.2814 45.6963 4.24699 45.6695 4.21258C45.6427 4.17818 45.6159 4.14377 45.5853 4.11319L45.5547 4.0826C45.5317 4.05966 45.5088 4.0329 45.4858 4.00614C45.4628 3.97938 45.4398 3.95262 45.4169 3.92968L45.3556 3.86851L45.2484 3.76146L45.1413 3.65442L45.08 3.59325L45.08 3.59321C45.034 3.54735 44.9881 3.50148 44.9269 3.45562L44.8963 3.42503C44.8656 3.40209 44.8312 3.37533 44.7967 3.34857C44.7623 3.32181 44.7278 3.29505 44.6972 3.27211C44.6206 3.21094 44.5594 3.16506 44.4828 3.11919L44.4675 3.10389C44.4292 3.08096 44.3948 3.05802 44.3603 3.03509C44.3259 3.01214 44.2914 2.9892 44.2531 2.96626L44.2378 2.95097C44.2072 2.9357 44.1728 2.91662 44.1384 2.89753L44.1383 2.89745L44.1381 2.89737C44.1037 2.87828 44.0693 2.85919 44.0388 2.84392L43.9928 2.81334C43.9622 2.79804 43.9354 2.78275 43.9086 2.76746C43.8818 2.75217 43.855 2.73688 43.8244 2.72158L43.7478 2.67571C43.7325 2.66806 43.7134 2.66042 43.6942 2.65277C43.6751 2.64512 43.6559 2.63748 43.6406 2.62983L43.5947 2.61454L43.5028 2.56866L43.4109 2.53808C43.3642 2.51471 43.3174 2.50027 43.2774 2.48794C43.265 2.48413 43.2533 2.48052 43.2425 2.47691L43.1966 2.46162C43.1706 2.45512 43.1446 2.44588 43.1174 2.43622C43.0806 2.42312 43.0416 2.40925 42.9975 2.40045C42.7372 2.32398 42.4922 2.26281 42.2472 2.23223H42.2166C42.1553 2.21694 42.0788 2.20165 42.0022 2.20165L41.895 2.18635C41.8491 2.17106 41.8031 2.17106 41.7572 2.17106H41.5581H41.5122C40.7619 2.17106 40.0116 2.33928 39.3225 2.64512L39.2766 2.66042C39.2536 2.67571 39.2268 2.68718 39.2 2.69865C39.1732 2.71012 39.1464 2.72158 39.1234 2.73688L39.0928 2.75217C39.0852 2.75982 39.0737 2.76364 39.0622 2.76746C39.0507 2.77129 39.0392 2.77511 39.0316 2.78275L38.9397 2.82863L38.9091 2.84392C38.8478 2.87451 38.8172 2.8898 38.7713 2.92039L38.6947 2.96626C38.6614 2.99953 38.62 3.02476 38.5823 3.04777C38.568 3.0565 38.5542 3.0649 38.5416 3.07331L38.4803 3.11919C38.4497 3.14213 38.4229 3.16125 38.3961 3.18037L38.396 3.18045C38.3692 3.19954 38.3424 3.21863 38.3119 3.24152C38.2966 3.24917 38.2851 3.26064 38.2736 3.27211C38.2621 3.28358 38.2506 3.29505 38.2353 3.30269L38.22 3.31799C38.2021 3.33587 38.1842 3.34853 38.1693 3.35902L38.1693 3.35905L38.1693 3.35907C38.1588 3.36649 38.1498 3.37282 38.1434 3.37916C38.1205 3.40209 38.0937 3.42503 38.0669 3.44796C38.0401 3.4709 38.0133 3.49385 37.9903 3.51679L37.9291 3.57796C37.9061 3.59325 37.887 3.61236 37.8678 3.63148C37.8487 3.65059 37.8295 3.66971 37.8066 3.685L37.7606 3.73088C37.7204 3.76102 37.6868 3.79775 37.6511 3.83675C37.6324 3.85712 37.6132 3.87811 37.5922 3.8991L37.5618 3.9372C37.5147 3.99656 37.4745 4.04723 37.4237 4.0979L37.4084 4.11319C37.3891 4.1373 37.3698 4.15988 37.351 4.18191L37.351 4.18194C37.3101 4.22976 37.2714 4.27494 37.24 4.32728L37.24 4.32731C37.194 4.38847 37.1481 4.44963 37.0869 4.4955C36.6428 4.87781 36.015 4.86251 35.5863 4.4802C35.5665 4.47033 35.5531 4.45408 35.5378 4.43557C35.5295 4.42542 35.5205 4.41458 35.5097 4.40374C35.4617 4.35578 35.4178 4.30781 35.376 4.26203C35.3378 4.22024 35.3012 4.18026 35.2647 4.14377L35.2188 4.11319C35.1575 4.03673 35.0809 3.96026 35.0044 3.8991L34.9738 3.86851C34.9354 3.83791 34.8933 3.80348 34.8512 3.76906L34.851 3.76891C34.809 3.73457 34.767 3.70024 34.7288 3.66971L34.7134 3.65442L34.675 3.62357L34.675 3.62351L34.6749 3.62348C34.607 3.56877 34.5301 3.50683 34.4531 3.45562C34.346 3.37922 34.2542 3.31808 34.1624 3.25696L34.1623 3.25692L34.1623 3.2569L34.1622 3.25682C33.4578 2.81334 32.7075 2.50749 31.8959 2.33928H31.85C31.7429 2.32399 31.651 2.3087 31.5592 2.29342L31.5592 2.29341L31.5591 2.29341L31.5591 2.2934C31.5284 2.27811 31.5131 2.27811 31.4825 2.27811H31.4366C31.3753 2.26281 31.2987 2.24752 31.2222 2.24752C31.1763 2.23223 31.1456 2.23223 31.0997 2.23223H31.0844C31.0231 2.21694 30.9466 2.21694 30.8853 2.21694H30.7475H30.5484C30.0125 2.21694 29.4766 2.27811 28.9559 2.41574L28.8641 2.44632C28.175 2.64512 27.5319 2.93568 26.9347 3.33328L26.9041 3.36386C26.7356 3.47091 26.5672 3.59325 26.4141 3.73088C26.3988 3.74617 26.3834 3.75764 26.3681 3.76911L26.3681 3.76912C26.3528 3.78059 26.3375 3.79205 26.3222 3.80734C26.2992 3.82263 26.2801 3.84175 26.2609 3.86087L26.2609 3.86088C26.2418 3.87999 26.2227 3.8991 26.1997 3.91439C26.1767 3.93733 26.1538 3.95644 26.1308 3.97556C26.1078 3.99467 26.0848 4.01379 26.0619 4.03673L25.9088 4.18965L25.8169 4.2814C25.8016 4.30434 25.7824 4.32346 25.7633 4.34257C25.7441 4.36169 25.725 4.3808 25.7097 4.40374L25.6178 4.4955L25.6025 4.51079C25.5795 4.54136 25.5528 4.57192 25.526 4.60249L25.5259 4.60254C25.4991 4.63312 25.4723 4.66371 25.4494 4.6943C25.4341 4.72488 25.4034 4.77076 25.3728 4.80134C25.3422 4.83193 25.3116 4.87781 25.2809 4.92368L25.1891 5.06131L25.189 5.06134C25.1431 5.1225 25.0972 5.18366 25.0666 5.24482C25.0513 5.29069 25.0206 5.33657 24.99 5.38244L24.99 5.38245C24.9747 5.40539 24.9632 5.4245 24.9517 5.44361C24.9402 5.46273 24.9288 5.48185 24.9134 5.50479C24.8828 5.55067 24.8522 5.61184 24.8216 5.67301C24.8063 5.69594 24.7948 5.71888 24.7833 5.74182C24.7718 5.76476 24.7603 5.7877 24.745 5.81064L24.6531 5.99415C24.6455 6.00944 24.6378 6.02855 24.6302 6.04767C24.6225 6.06679 24.6148 6.0859 24.6072 6.10119C24.5919 6.13178 24.5804 6.16236 24.5689 6.19294C24.5574 6.22353 24.5459 6.25411 24.5306 6.2847L24.5153 6.31529C24.5077 6.33057 24.5038 6.34203 24.5 6.35349L24.5 6.35352C24.4962 6.36499 24.4923 6.37646 24.4847 6.39175C24.4694 6.42998 24.4541 6.47203 24.4387 6.51409C24.4234 6.55614 24.4081 6.59819 24.3928 6.63643C24.3928 6.66701 24.3775 6.71289 24.3622 6.74347C24.3316 6.80464 24.3162 6.86581 24.3009 6.92698L24.2703 7.03403C24.2627 7.0799 24.2512 7.12578 24.2397 7.17166C24.2282 7.21753 24.2167 7.26341 24.2091 7.30929C24.2091 7.31562 24.2064 7.32458 24.2034 7.33508C24.199 7.34992 24.1938 7.36783 24.1938 7.38575V7.41633C24.1938 7.4775 24.1784 7.53867 24.1631 7.59984V7.61513C24.1631 7.63043 24.1593 7.64572 24.1555 7.66101C24.1516 7.6763 24.1478 7.6916 24.1478 7.70689C24.1478 7.72218 24.144 7.73747 24.1402 7.75277L24.1402 7.75279C24.1363 7.76807 24.1325 7.78336 24.1325 7.79864L24.1172 7.85981C24.1172 7.8811 24.1139 7.90569 24.1104 7.93204C24.1063 7.96247 24.1019 7.99525 24.1019 8.02803C24.1019 8.05861 24.098 8.08537 24.0942 8.11214C24.0904 8.1389 24.0866 8.16566 24.0866 8.19624V8.27271V8.36446C24.0713 8.4868 24.0713 8.59385 24.0713 8.70089C24.0713 8.89969 24.0866 9.09849 24.1019 9.29729C24.1095 9.34317 24.1134 9.38905 24.1172 9.43492L24.1172 9.43499C24.121 9.48085 24.1248 9.5267 24.1325 9.57255V9.61843C24.1401 9.65655 24.1478 9.69847 24.1554 9.7404L24.1555 9.74077C24.1631 9.78282 24.1708 9.82488 24.1784 9.86311L24.1938 9.92428L24.2397 10.1537L24.255 10.2301C24.2856 10.3066 24.3009 10.3678 24.3163 10.4442L24.3469 10.5207C24.3545 10.5513 24.366 10.5857 24.3775 10.6201C24.389 10.6545 24.4005 10.6889 24.4081 10.7195L24.4388 10.8112C24.4541 10.8724 24.4694 10.9336 24.5 10.9947C24.5077 11.01 24.5115 11.0215 24.5153 11.033C24.5191 11.0444 24.523 11.0559 24.5306 11.0712L24.5459 11.1018C24.5612 11.1324 24.5727 11.163 24.5842 11.1935L24.5842 11.1936C24.5957 11.2242 24.6072 11.2547 24.6225 11.2853C24.6302 11.2929 24.634 11.3044 24.6378 11.3159C24.6416 11.3274 24.6455 11.3388 24.6531 11.3465L24.6838 11.4076C24.6991 11.4688 24.7144 11.5147 24.745 11.5606L24.7909 11.6523C24.8216 11.7058 24.8522 11.7632 24.8828 11.8205L24.8828 11.8206C24.9134 11.8779 24.9441 11.9352 24.9747 11.9887L25.0206 12.0652C25.0327 12.0833 25.0424 12.1014 25.0516 12.1186C25.0657 12.1449 25.0786 12.169 25.0972 12.1875L25.1431 12.264C25.1508 12.2717 25.1584 12.2831 25.1661 12.2946C25.1737 12.3061 25.1814 12.3175 25.1891 12.3252C25.1998 12.3574 25.2181 12.382 25.2386 12.4097L25.2387 12.4098C25.2474 12.4215 25.2565 12.4338 25.2656 12.4475L25.2962 12.4934C25.3039 12.5087 25.3116 12.5202 25.3192 12.5316L25.3192 12.5317C25.3269 12.5431 25.3345 12.5546 25.3422 12.5699C25.3575 12.5928 25.3766 12.6157 25.3958 12.6387L25.3958 12.6387C25.4149 12.6616 25.4341 12.6846 25.4494 12.7075L25.4494 12.7075C25.48 12.7381 25.5106 12.7687 25.5259 12.7992C25.5489 12.8222 25.568 12.8451 25.5872 12.8681C25.6063 12.891 25.6255 12.9139 25.6484 12.9369C25.6637 12.9675 25.6791 12.9827 25.7097 13.0133C25.7556 13.0745 25.8016 13.1204 25.8475 13.1663L25.9088 13.2274L26.0619 13.3803L26.1231 13.4262C26.1537 13.4492 26.1805 13.4759 26.2073 13.5027L26.2073 13.5027C26.2341 13.5294 26.2609 13.5562 26.2916 13.5791L26.3222 13.6097C26.7356 13.9767 27.195 14.2979 27.685 14.5426L27.7309 14.5579C27.7692 14.5731 27.8037 14.5884 27.8381 14.6037C27.8726 14.619 27.907 14.6343 27.9453 14.6496L28.0066 14.6802C28.0678 14.6955 28.1444 14.7261 28.2056 14.7567L28.2975 14.7872C28.3281 14.7949 28.3587 14.8064 28.3894 14.8178L28.3894 14.8178L28.3894 14.8178C28.42 14.8293 28.4506 14.8408 28.4813 14.8484C28.5119 14.8484 28.5578 14.8637 28.5884 14.879C28.6344 14.9096 28.6956 14.9249 28.7569 14.9402L28.7569 14.9402C28.7798 14.9478 28.799 14.9516 28.8181 14.9555C28.8373 14.9593 28.8564 14.9631 28.8794 14.9708L28.91 14.986L29.0478 15.0319C29.0938 15.0319 29.155 15.0472 29.2009 15.0625L29.2622 15.0778C29.2775 15.0778 29.2928 15.0816 29.3081 15.0854C29.3234 15.0893 29.3387 15.0931 29.3541 15.0931C29.4459 15.1237 29.5531 15.139 29.6603 15.1543H29.6756C29.7216 15.1543 29.7828 15.1696 29.8288 15.1848L29.8594 15.2001C29.8958 15.2092 29.9268 15.2237 29.9557 15.2372C29.9753 15.2464 29.9939 15.2551 30.0125 15.2613L30.0278 15.2766C30.0584 15.2919 30.1043 15.3224 30.1502 15.353L30.1503 15.3531L30.1656 15.3684C30.1809 15.3836 30.2001 15.3989 30.2192 15.4142L30.2192 15.4142L30.2193 15.4143C30.2384 15.4295 30.2575 15.4448 30.2728 15.4601L30.2881 15.4754C30.294 15.4812 30.2998 15.4848 30.3048 15.4879C30.3129 15.4929 30.3188 15.4965 30.3188 15.506C30.3188 15.5213 30.3341 15.5366 30.3494 15.5519C30.357 15.5595 30.3609 15.5672 30.3647 15.5748C30.3685 15.5824 30.3723 15.5901 30.38 15.5977C30.3877 15.6054 30.3915 15.613 30.3953 15.6207C30.3991 15.6283 30.403 15.636 30.4106 15.6436C30.4183 15.6513 30.4221 15.6589 30.4259 15.6666C30.4298 15.6742 30.4336 15.6818 30.4413 15.6895C30.4566 15.7048 30.4719 15.7201 30.4719 15.7354C30.4777 15.7471 30.4813 15.7565 30.4844 15.7646C30.4894 15.7776 30.493 15.7871 30.5025 15.7965C30.5025 15.8042 30.5063 15.8118 30.5102 15.8195C30.514 15.8271 30.5178 15.8348 30.5178 15.8424C30.5178 15.8501 30.5216 15.8577 30.5255 15.8654C30.5293 15.873 30.5331 15.8806 30.5331 15.8883C30.5331 15.8959 30.537 15.9036 30.5408 15.9112C30.5446 15.9189 30.5484 15.9265 30.5484 15.9342C30.5484 15.9418 30.5523 15.9495 30.5561 15.9571C30.5599 15.9648 30.5638 15.9724 30.5638 15.98C30.5638 15.9877 30.5676 15.9992 30.5714 16.0106C30.5752 16.0221 30.5791 16.0336 30.5791 16.0412C30.5944 16.0565 30.5944 16.0718 30.5944 16.0871C30.6097 16.1024 30.6097 16.133 30.6097 16.1483V16.1941V16.2553V16.3012V16.3624V16.4235V16.4541V16.4847C30.6097 16.5306 30.5944 16.5764 30.5791 16.6223V16.6376C30.5714 16.6606 30.5599 16.6835 30.5484 16.7064C30.537 16.7294 30.5255 16.7523 30.5178 16.7752L30.5025 16.7905C30.4872 16.8364 30.4566 16.8823 30.426 16.9281L30.4259 16.9282L30.4106 16.9588C30.38 17.0046 30.3341 17.0505 30.3034 17.0811L27.7769 19.6043L29.4306 21.2559L31.9572 18.7327C31.9878 18.7021 32.0338 18.6562 32.0797 18.6256L32.1103 18.6103C32.1562 18.5797 32.2022 18.5492 32.2481 18.5339L32.2634 18.5186C32.3094 18.488 32.3553 18.4727 32.4013 18.4574H32.4166C32.4395 18.4498 32.4625 18.4459 32.4855 18.4421C32.5084 18.4383 32.5314 18.4345 32.5544 18.4268H32.585H32.6156H32.6769H32.7228H32.7687H32.83H32.8759C32.8913 18.4421 32.9219 18.4421 32.9372 18.4421C32.9525 18.4574 32.9678 18.4574 32.9831 18.4574C33.0011 18.4574 33.0138 18.4627 33.0243 18.467C33.0317 18.4701 33.038 18.4727 33.0444 18.4727C33.052 18.4727 33.0597 18.4765 33.0673 18.4803C33.075 18.4842 33.0827 18.488 33.0903 18.488C33.098 18.488 33.1056 18.4918 33.1133 18.4956C33.1209 18.4995 33.1286 18.5033 33.1362 18.5033C33.1479 18.5091 33.1574 18.5127 33.1655 18.5158C33.1786 18.5208 33.188 18.5244 33.1975 18.5339C33.2052 18.5339 33.2128 18.5377 33.2205 18.5415C33.2281 18.5453 33.2358 18.5492 33.2434 18.5492C33.2511 18.5568 33.2588 18.5606 33.2664 18.5645C33.2741 18.5683 33.2817 18.5721 33.2894 18.5797C33.297 18.5874 33.3047 18.5912 33.3123 18.595C33.32 18.5989 33.3277 18.6027 33.3353 18.6103C33.343 18.618 33.3506 18.6218 33.3583 18.6256C33.3659 18.6294 33.3736 18.6333 33.3813 18.6409C33.3889 18.6486 33.3966 18.6524 33.4042 18.6562C33.4119 18.66 33.4195 18.6639 33.4272 18.6715C33.4425 18.6715 33.4578 18.6868 33.4731 18.7021L33.5191 18.748L33.5344 18.7633L33.5497 18.7938C33.565 18.8091 33.5803 18.8282 33.5956 18.8474C33.6109 18.8665 33.6263 18.8856 33.6416 18.9009L33.6569 18.9162C33.6754 18.9347 33.6883 18.9588 33.7025 18.9852C33.7117 19.0023 33.7214 19.0204 33.7334 19.0385L33.7487 19.0538C33.7744 19.0794 33.7893 19.1265 33.8025 19.1681L33.81 19.1914L33.8253 19.222C33.8406 19.2679 33.8559 19.3291 33.8559 19.3749C33.8626 19.415 33.8722 19.458 33.8822 19.5026L33.8822 19.5027L33.8822 19.5028L33.8823 19.5028C33.8951 19.5603 33.9086 19.6206 33.9172 19.6808C33.9172 19.6871 33.9198 19.6961 33.9229 19.7066C33.9272 19.7214 33.9325 19.7393 33.9325 19.7573L33.9478 19.8337C33.9478 19.8796 33.9631 19.9408 33.9784 19.9866C33.9784 20.0325 33.9937 20.0784 34.0091 20.1242L34.0091 20.1243L34.0244 20.1701C34.032 20.1854 34.0359 20.2045 34.0397 20.2236L34.0397 20.2237L34.0397 20.2237C34.0435 20.2428 34.0474 20.2619 34.055 20.2772C34.0856 20.3231 34.1009 20.3842 34.1162 20.4454L34.1163 20.4454C34.1163 20.476 34.1316 20.5219 34.1469 20.5525L34.1469 20.5525C34.1622 20.6137 34.1775 20.6748 34.2081 20.736C34.2081 20.7666 34.2234 20.7971 34.2388 20.8277C34.2541 20.8889 34.2847 20.9653 34.3153 21.0265L34.3459 21.103C34.3613 21.1412 34.3766 21.1756 34.3919 21.21C34.4072 21.2444 34.4225 21.2788 34.4378 21.3171L34.4531 21.3629C34.7134 21.8523 35.0197 22.3111 35.3872 22.724L35.4178 22.7546C35.4408 22.7851 35.4676 22.8119 35.4944 22.8387C35.5212 22.8654 35.548 22.8922 35.5709 22.9228L35.6169 22.9839C35.648 23.0254 35.6862 23.0599 35.7219 23.0921C35.7388 23.1073 35.7552 23.1221 35.77 23.1369L35.8312 23.198C35.8925 23.2439 35.9384 23.2898 35.9843 23.3356L35.9844 23.3357C35.9997 23.351 36.0303 23.3815 36.0609 23.3968C36.0839 23.4198 36.1069 23.4389 36.1298 23.458L36.1299 23.458C36.1528 23.4771 36.1758 23.4962 36.1987 23.5192C36.2141 23.5268 36.2255 23.5383 36.237 23.5498C36.2485 23.5612 36.26 23.5727 36.2753 23.5803C36.3034 23.6014 36.3283 23.6224 36.3514 23.642C36.3787 23.6651 36.4036 23.6861 36.4284 23.7027C36.4361 23.7103 36.4476 23.718 36.4591 23.7256C36.4706 23.7333 36.482 23.7409 36.4897 23.7486L36.5203 23.7638L36.6581 23.8556C36.6658 23.8632 36.6773 23.8709 36.6887 23.8785C36.7002 23.8862 36.7117 23.8938 36.7194 23.9015L36.7959 23.9474C36.8112 23.955 36.8303 23.9664 36.8495 23.9779L36.8495 23.9779L36.8496 23.978C36.8687 23.9894 36.8878 24.0009 36.9031 24.0085L36.9797 24.0544C37.0409 24.085 37.0984 24.1156 37.1558 24.1462L37.156 24.1463C37.2133 24.1768 37.2707 24.2074 37.3319 24.2379L37.4237 24.2838C37.4467 24.2991 37.4735 24.3105 37.5003 24.322C37.5271 24.3335 37.5539 24.345 37.5769 24.3603L37.6228 24.3755C37.6305 24.3832 37.642 24.387 37.6534 24.3908C37.6649 24.3947 37.6764 24.3985 37.6841 24.4061C37.7147 24.4214 37.7453 24.4329 37.7759 24.4444C37.8066 24.4558 37.8372 24.4673 37.8678 24.4826L37.9597 24.5285C37.9903 24.5361 38.0209 24.5476 38.0515 24.559L38.0516 24.5591C38.0822 24.5705 38.1128 24.582 38.1434 24.5896L38.2353 24.6202C38.2659 24.6279 38.3004 24.6393 38.3349 24.6508C38.3693 24.6623 38.4038 24.6737 38.4344 24.6814L38.5109 24.712C38.5875 24.7426 38.6488 24.7579 38.7253 24.7731L38.8019 24.7884L39.0316 24.8343L39.0928 24.8496C39.1311 24.8572 39.1732 24.8649 39.2153 24.8725L39.2154 24.8726C39.2575 24.8802 39.2996 24.8878 39.3378 24.8955H39.3684C39.4083 24.9034 39.4523 24.9073 39.4983 24.9113L39.4984 24.9113L39.4984 24.9113C39.5408 24.9149 39.5848 24.9187 39.6287 24.9261L39.6288 24.9261C39.8279 24.9414 40.0269 24.9567 40.2259 24.9567C40.2892 24.9567 40.3484 24.9526 40.4057 24.9486L40.4057 24.9486C40.4592 24.9449 40.511 24.9414 40.5628 24.9414H40.6547H40.7159C40.7466 24.9414 40.7734 24.9375 40.8002 24.9337C40.827 24.9299 40.8537 24.9261 40.8844 24.9261C40.915 24.9261 40.9418 24.9222 40.9686 24.9184C40.9954 24.9146 41.0222 24.9108 41.0528 24.9108L41.1141 24.8955C41.1394 24.8955 41.16 24.8908 41.1786 24.8867C41.1937 24.8833 41.2075 24.8802 41.2213 24.8802C41.2366 24.8802 41.2519 24.8764 41.2672 24.8725C41.2825 24.8687 41.2978 24.8649 41.3131 24.8649H41.3438C41.405 24.8649 41.4662 24.8496 41.5274 24.8343L41.5275 24.8343H41.5581C41.5734 24.8343 41.5849 24.8305 41.5964 24.8267C41.6079 24.8228 41.6194 24.819 41.6347 24.819C41.7266 24.8037 41.8184 24.7884 41.9103 24.7579C41.918 24.7579 41.9295 24.754 41.9409 24.7502C41.9524 24.7464 41.9639 24.7426 41.9716 24.7426L42.0022 24.7273C42.0328 24.7196 42.0634 24.7082 42.0941 24.6967C42.1247 24.6852 42.1553 24.6737 42.1859 24.6661H42.2013C42.2166 24.6585 42.2319 24.6546 42.2472 24.6508C42.2625 24.647 42.2778 24.6432 42.2931 24.6355C42.3314 24.6202 42.3735 24.6049 42.4156 24.5896C42.4577 24.5743 42.4998 24.5591 42.5381 24.5438L42.63 24.4979C42.7066 24.4826 42.7678 24.452 42.8291 24.4214C42.8444 24.4138 42.8635 24.4061 42.8826 24.3985L42.8827 24.3985C42.9018 24.3908 42.9209 24.3832 42.9362 24.3755L43.12 24.2838C43.143 24.2685 43.1659 24.257 43.1889 24.2456C43.2119 24.2341 43.2348 24.2226 43.2578 24.2073L43.4416 24.1156C43.4645 24.1003 43.4837 24.0888 43.5028 24.0773C43.5127 24.0714 43.5226 24.0655 43.533 24.059C43.5427 24.053 43.553 24.0465 43.5641 24.0391L43.7019 23.9474C43.7325 23.9244 43.7631 23.9053 43.7938 23.8862C43.8244 23.8671 43.855 23.848 43.8856 23.825L44.0234 23.7333C44.0541 23.7027 44.1 23.6721 44.1459 23.6415L44.1459 23.6415C44.1766 23.6262 44.2225 23.5956 44.2531 23.565C44.3297 23.5192 44.3909 23.4733 44.4522 23.4121L44.4675 23.3968C44.5134 23.3662 44.5441 23.3357 44.5747 23.3051C44.5977 23.2898 44.6168 23.2707 44.6359 23.2516C44.6551 23.2324 44.6742 23.2133 44.6972 23.198L44.7891 23.1063C44.8038 23.0915 44.8202 23.0767 44.8372 23.0615L44.8372 23.0614C44.8729 23.0293 44.911 22.9948 44.9422 22.9534C44.9652 22.9304 44.9843 22.9075 45.0034 22.8845C45.0226 22.8616 45.0417 22.8387 45.0647 22.8157C45.08 22.7928 45.0991 22.7737 45.1183 22.7546C45.1374 22.7354 45.1566 22.7163 45.1719 22.6934C45.1872 22.6781 45.1987 22.6628 45.2101 22.6475C45.2216 22.6322 45.2331 22.6169 45.2484 22.6016L45.282 22.5599C45.3956 22.4183 45.5184 22.2653 45.6159 22.1123L45.6466 22.0817C46.0447 21.4853 46.3509 20.843 46.5347 20.1549L46.5653 20.0478C46.6878 19.5279 46.7644 19.0079 46.7644 18.4727V18.2739V18.1363C46.7644 18.1057 46.7606 18.0713 46.7567 18.037L46.7567 18.0369L46.7567 18.0368C46.7529 18.0024 46.7491 17.968 46.7491 17.9375C46.7491 17.9145 46.7452 17.8916 46.7414 17.8687C46.7376 17.8457 46.7338 17.8228 46.7338 17.7998C46.7257 17.7677 46.7219 17.7314 46.7179 17.6931C46.7142 17.6584 46.7104 17.6221 46.7031 17.5857V17.5399C46.6878 17.5246 46.6878 17.494 46.6878 17.4787C46.6725 17.3717 46.6572 17.2799 46.6419 17.1881V17.1576C46.4734 16.3471 46.1672 15.5824 45.7231 14.8943C45.6843 14.8265 45.6394 14.7648 45.5961 14.7054C45.571 14.671 45.5465 14.6374 45.5241 14.6037C45.4475 14.4967 45.3862 14.4202 45.3097 14.3285L45.2944 14.3132L45.2617 14.2739L45.2617 14.2739L45.2615 14.2737C45.1995 14.199 45.1453 14.1337 45.08 14.0685L45.0647 14.0532C44.9881 13.9615 44.9269 13.9003 44.8503 13.8238L44.8197 13.7779L44.8196 13.7779C44.7431 13.7014 44.6665 13.625 44.5747 13.5486L44.5594 13.5333ZM43.7327 5.7004C43.8824 5.88763 44.0072 6.07486 44.107 6.28705C44.2941 6.67399 44.3939 7.09838 44.3814 7.52276C44.3814 9.12045 43.084 10.4061 41.4996 10.4061C41.1627 10.4061 40.8259 10.3437 40.514 10.2313L40.252 10.119L40.1023 10.0441L39.9152 9.93178C39.8403 9.88185 39.753 9.81944 39.6782 9.75703C39.5784 9.66966 39.4661 9.5698 39.3787 9.46995C39.3164 9.40754 39.254 9.33265 39.2041 9.25776L39.1292 9.14542C39.0905 9.09893 39.0614 9.04764 39.033 8.99751L39.0329 8.99745C39.0156 8.96683 38.9984 8.93665 38.9795 8.90826C38.9421 8.84585 38.9171 8.79592 38.8922 8.73351C38.8797 8.70855 38.8704 8.68359 38.861 8.65863C38.8517 8.63367 38.8423 8.6087 38.8298 8.58373C38.755 8.38402 38.7051 8.17182 38.6676 7.97211C38.6427 7.83481 38.6302 7.68503 38.6302 7.53524C38.6302 5.93755 39.9277 4.65191 41.5121 4.65191C41.6618 4.65191 41.799 4.66439 41.9487 4.68936C42.3729 4.75177 42.7721 4.91403 43.1214 5.15119L43.2337 5.22608C43.3085 5.27601 43.3834 5.33842 43.4458 5.40083C43.5456 5.4882 43.6454 5.60054 43.7327 5.7004ZM40.4516 7.53524C40.4516 8.1219 40.9257 8.59621 41.5121 8.59621C42.0984 8.59621 42.5725 8.1219 42.585 7.53524C42.585 7.26064 42.4727 6.98604 42.2731 6.78633C42.2555 6.77313 42.2379 6.75839 42.2198 6.74319C42.1864 6.71525 42.1513 6.68576 42.1109 6.66151C41.9362 6.53669 41.7241 6.47428 41.5121 6.47428C40.9257 6.47428 40.4516 6.94859 40.4516 7.53524ZM40.2127 14.916C38.2828 14.916 36.714 16.4905 36.714 18.4274C36.714 20.3643 38.2828 21.9388 40.2127 21.9388C40.3272 21.9388 40.4322 21.9291 40.5452 21.9187L40.5739 21.9161C40.6867 21.9048 40.8109 21.8821 40.9237 21.8595C41.3752 21.7689 41.7928 21.5876 42.1765 21.3271C42.3119 21.2365 42.4474 21.1232 42.5715 21.0099L42.8085 20.7721C42.9214 20.6475 43.0229 20.5116 43.1245 20.3757L43.1246 20.3756C43.3841 19.9905 43.5534 19.5714 43.655 19.1183L43.655 19.1182C43.6776 19.005 43.7002 18.8918 43.7114 18.7672C43.7227 18.6539 43.734 18.5293 43.734 18.4047C43.7114 16.4905 42.1427 14.916 40.2127 14.916ZM40.2127 20.285C40.145 20.285 40.0886 20.285 40.0209 20.2737C39.987 20.268 39.9503 20.2624 39.9136 20.2567C39.8769 20.251 39.8403 20.2454 39.8064 20.2397C39.7838 20.234 39.7584 20.2284 39.733 20.2227C39.7076 20.217 39.6823 20.2114 39.6597 20.2057C39.5355 20.1717 39.4227 20.1151 39.3098 20.0471C39.2929 20.0358 39.2732 20.0245 39.2534 20.0132C39.2336 20.0018 39.2139 19.9905 39.197 19.9792C39.1514 19.9518 39.1059 19.9169 39.0662 19.8867L39.0662 19.8867L39.039 19.8659C38.9035 19.7526 38.7794 19.6167 38.6778 19.4695C38.6439 19.4242 38.6101 19.3675 38.5875 19.3109C38.5424 19.2316 38.5085 19.1523 38.4746 19.0617C38.469 19.0447 38.4634 19.0249 38.4577 19.0051L38.4577 19.0051C38.4521 18.9852 38.4464 18.9654 38.4408 18.9484C38.4352 18.9258 38.4295 18.9003 38.4239 18.8749C38.4182 18.8494 38.4126 18.8238 38.4069 18.8012C38.3844 18.6766 38.3731 18.552 38.3731 18.4274C38.3731 17.3966 39.2082 16.5698 40.224 16.5698C40.382 16.5698 40.54 16.5924 40.6867 16.6264C40.7432 16.6377 40.7996 16.6604 40.856 16.683C41.1608 16.7963 41.4429 16.9889 41.6461 17.2494C41.8041 17.4419 41.9169 17.6458 41.9846 17.8837C41.987 17.8908 41.9894 17.8974 41.9916 17.9037C42.0002 17.9276 42.0072 17.9474 42.0072 17.9743C42.0298 18.0649 42.0411 18.1555 42.0524 18.2462C42.0637 18.3141 42.0637 18.3707 42.0637 18.4387C42.0637 19.4468 41.2285 20.285 40.2127 20.285ZM27.0346 8.76278C27.0346 6.82708 28.6084 5.25361 30.5446 5.25361C32.4808 5.25361 34.0546 6.82708 34.0546 8.76278C34.0546 10.6985 32.4808 12.2719 30.5446 12.2719C28.6084 12.2719 27.0346 10.6985 27.0346 8.76278ZM30.171 10.5853C30.2955 10.6079 30.4201 10.6192 30.5446 10.6192C31.5636 10.6192 32.4015 9.78157 32.4128 8.7741C32.4128 7.75531 31.5863 6.91764 30.5559 6.91764C29.5369 6.91764 28.699 7.74399 28.699 8.7741C28.699 8.89862 28.7103 9.02314 28.733 9.14765C28.7443 9.21557 28.7556 9.27217 28.7783 9.32877C28.8122 9.44197 28.8575 9.55517 28.9141 9.65705C28.9368 9.71365 28.9708 9.77025 29.0047 9.81553C29.1293 10.008 29.2991 10.1778 29.5029 10.3136C29.5312 10.3306 29.5567 10.3447 29.5822 10.3589C29.6077 10.373 29.6331 10.3872 29.6614 10.4042C29.7633 10.4608 29.8766 10.506 29.9898 10.54C30.0385 10.5595 30.0955 10.5706 30.1466 10.5805C30.1549 10.5821 30.163 10.5837 30.171 10.5853Z" fill="url(#paint0_linear)"/>
</g>
<defs>
<linearGradient id="paint0_linear" x1="49.002" y1="-0.0024602" x2="-3.64492" y2="4.0881" gradientUnits="userSpaceOnUse">
<stop stop-color="#2FDFD4"/>
<stop offset="0.478626" stop-color="#2FCDDF"/>
<stop offset="1" stop-color="#59AFFF"/>
</linearGradient>
<clipPath id="clip0">
<rect width="49" height="51" fill="white"/>
</clipPath>
</defs>
</svg>
