<svg width="52" height="55" viewBox="0 0 52 55" fill="none" xmlns="http://www.w3.org/2000/svg">
<path d="M50.5104 46.9812H43.0625V6.23233C43.0625 2.95934 40.5167 0.231837 37.2802 0.0136375C36.8469 0.0136375 33.6375 0 6.47292 0C2.91146 0 0 2.93206 0 6.51872C0 7.35061 0.663542 8.01884 1.48958 8.01884H8.95104V48.7677C8.95104 52.2043 11.7271 55 15.1396 55H45.5271C49.0885 55 52 52.0679 52 48.4813C52 47.663 51.3365 46.9812 50.5104 46.9812ZM48.6823 49.9814C48.1542 51.086 47.0708 51.877 45.825 51.9861C44.9448 51.5361 44.2135 50.8406 43.726 49.9814H48.6823ZM6.47292 3.00025H31.6063C31.2135 3.61393 30.9292 4.29581 30.7531 5.0186H3.30417C3.87292 3.80486 5.09167 3.00025 6.47292 3.00025ZM11.9302 8.01884H32.0802C32.9062 8.01884 33.5698 7.35061 33.5698 6.51872V6.50508C33.5833 4.59583 35.0729 3.06844 36.9688 3.01389C38.7156 3.06844 40.0833 4.48673 40.0969 6.24597V47.4312C40.0969 47.8403 40.1375 48.2358 40.1917 48.6449C40.1917 48.6995 40.2052 48.754 40.2188 48.8222C40.4083 49.9678 40.8552 51.0588 41.5052 52.0134H15.1667C13.3927 52.0134 11.9573 50.5542 11.9573 48.7813V8.01884H11.9302Z" fill="url(#paint0_linear)"/>
<path d="M15.9386 39.1943H36.0751C36.8199 39.1943 37.4293 38.5806 37.4293 37.8305C37.4293 37.0805 36.8199 36.4668 36.0751 36.4668H15.9386C15.1938 36.4668 14.5845 37.0805 14.5845 37.8305C14.5845 38.5806 15.1938 39.1943 15.9386 39.1943Z" fill="url(#paint1_linear)"/>
<path d="M15.9386 44.7446H36.0751C36.8199 44.7446 37.4293 44.1309 37.4293 43.3808C37.4293 42.6308 36.8199 42.0171 36.0751 42.0171H15.9386C15.1938 42.0171 14.5845 42.6308 14.5845 43.3808C14.5845 44.1309 15.1938 44.7446 15.9386 44.7446Z" fill="url(#paint2_linear)"/>
<path d="M19.8114 20.8927L21.0166 21.8473C21.003 22.0382 20.9895 22.2019 20.9895 22.3519C20.9895 22.5019 21.003 22.6656 21.0166 22.8565L19.7978 23.8111C19.5676 23.9884 19.5134 24.3157 19.6489 24.5748L20.9082 26.7705C21.0436 27.0159 21.3416 27.1523 21.6395 27.0296L23.0749 26.4568C23.3457 26.6614 23.6301 26.825 23.928 26.9614L24.1447 28.4888C24.1853 28.7752 24.4291 28.9934 24.727 28.9934H27.2593C27.5572 28.9934 27.8009 28.7752 27.8416 28.4888L28.0582 26.9614C28.3426 26.825 28.627 26.6614 28.9114 26.4568L30.3468 27.0432C30.4145 27.0705 30.4822 27.0841 30.5634 27.0841C30.7801 27.0841 30.9697 26.9614 31.078 26.7841L32.3374 24.5748C32.4728 24.3157 32.4186 24.002 32.1884 23.8111L30.9832 22.8565C30.9968 22.7065 31.0103 22.5428 31.0103 22.3519C31.0103 22.161 30.9968 21.9973 30.9832 21.8473L32.202 20.8927C32.4322 20.7154 32.4864 20.4017 32.3509 20.129L31.0916 17.9334C30.9561 17.6879 30.6582 17.5515 30.3603 17.6743L28.9249 18.247C28.6541 18.0425 28.3697 17.8788 28.0718 17.7424L27.8551 16.215C27.8145 15.9286 27.5707 15.7104 27.2728 15.7104H24.7405C24.4426 15.7104 24.1989 15.9286 24.1582 16.215L23.9416 17.7424C23.6572 17.8788 23.3728 18.0425 23.0884 18.247L21.653 17.6606C21.3822 17.5515 21.0572 17.6742 20.9353 17.9197L19.6759 20.1154C19.5134 20.3881 19.5811 20.7154 19.8114 20.8927ZM25.9999 20.1426C27.2051 20.1426 28.1936 21.1382 28.1936 22.3519C28.1936 23.5656 27.2051 24.5612 25.9999 24.5612C24.7947 24.5612 23.8061 23.5656 23.8061 22.3519C23.8061 21.1245 24.7947 20.1426 25.9999 20.1426Z" fill="url(#paint3_linear)"/>
<defs>
<linearGradient id="paint0_linear" x1="52" y1="-2.02689e-05" x2="-3.87854" y2="4.27235" gradientUnits="userSpaceOnUse">
<stop stop-color="#2FDFD4"/>
<stop offset="0.478626" stop-color="#2FCDDF"/>
<stop offset="1" stop-color="#59AFFF"/>
</linearGradient>
<linearGradient id="paint1_linear" x1="37.4293" y1="36.4668" x2="20.5027" y2="47.9318" gradientUnits="userSpaceOnUse">
<stop stop-color="#2FDFD4"/>
<stop offset="0.478626" stop-color="#2FCDDF"/>
<stop offset="1" stop-color="#59AFFF"/>
</linearGradient>
<linearGradient id="paint2_linear" x1="37.4293" y1="42.0171" x2="20.5027" y2="53.4821" gradientUnits="userSpaceOnUse">
<stop stop-color="#2FDFD4"/>
<stop offset="0.478626" stop-color="#2FCDDF"/>
<stop offset="1" stop-color="#59AFFF"/>
</linearGradient>
<linearGradient id="paint3_linear" x1="32.4241" y1="15.7104" x2="18.6211" y2="16.7902" gradientUnits="userSpaceOnUse">
<stop stop-color="#2FDFD4"/>
<stop offset="0.478626" stop-color="#2FCDDF"/>
<stop offset="1" stop-color="#59AFFF"/>
</linearGradient>
</defs>
</svg>
