<svg width="60" height="48" viewBox="0 0 60 48" fill="none" xmlns="http://www.w3.org/2000/svg">
<g clip-path="url(#clip0)">
<path d="M31.4893 0.804222C30.982 -8.64863e-05 29.9094 -0.244252 29.0977 0.258441C28.8803 0.402068 28.6919 0.588783 28.5469 0.804222L0.268177 45.3572C0.0217703 45.745 -0.0651967 46.2046 0.0507593 46.6642C0.152221 47.1094 0.427616 47.4972 0.818968 47.7414C1.09436 47.9137 1.41324 47.9999 1.74662 47.9999H58.2752C59.1738 47.9999 59.913 47.3249 60 46.4631L31.4893 0.804222ZM4.89192 44.5529L7.86329 39.885H15.6903V36.438H10.052L16.9803 25.5224H27.141V22.0753H19.169L29.4021 5.94605L37.0262 32.9909H30.982V36.438H37.9974L40.2875 44.5672H4.89192V44.5529ZM43.8966 44.5529L34.91 12.6821L43.5922 26.3841H41.823L42.8467 30.0148L45.7809 29.8312L46.839 31.5116L55.1154 44.5672H43.8966V44.5529Z" fill="url(#paint0_linear)"/>
</g>
<defs>
<linearGradient id="paint0_linear" x1="60" y1="-0.00294738" x2="-4.19624" y2="6.48604" gradientUnits="userSpaceOnUse">
<stop stop-color="#2FDFD4"/>
<stop offset="0.478626" stop-color="#2FCDDF"/>
<stop offset="1" stop-color="#59AFFF"/>
</linearGradient>
<clipPath id="clip0">
<rect width="60" height="48" fill="white"/>
</clipPath>
</defs>
</svg>
