<svg width="51" height="45" viewBox="0 0 51 45" fill="none" xmlns="http://www.w3.org/2000/svg">
<g clip-path="url(#clip0)">
<path d="M3.27299 45L6.52969 32.8481L10.4377 30.2373C10.4377 30.3165 10.454 30.3956 10.454 30.4747V30.4905C10.568 32.7532 12.4569 34.6044 14.7529 34.6994C14.818 34.6994 14.8994 34.6994 14.9646 34.6994C17.6351 34.6994 19.817 32.6266 19.817 30.0949V26.1551C21.0383 26.8196 22.4061 27.2468 23.8716 27.3418V33.1013C23.8716 33.9873 24.6044 34.6994 25.5163 34.6994C26.4282 34.6994 27.1609 33.9873 27.1609 33.1013V27.3418C28.6264 27.231 29.9943 26.8196 31.2155 26.1551V30.0633C31.2155 32.6108 33.3975 34.6994 36.0843 34.6994C37.4195 34.6994 38.7222 34.1614 39.6341 33.2437C40.2366 32.6266 40.5623 31.8196 40.5623 30.9652C40.5623 30.7278 40.5785 30.4905 40.5948 30.2532L44.4866 32.8481L47.7433 45H51.0163L47.7596 32.0095C47.7596 31.4873 47.499 30.9968 47.0431 30.6962L41.523 27.0095C42.0278 26.0443 42.7117 25.1582 43.5747 24.4146L45.6916 22.5791C46.0172 22.2943 46.2778 21.962 46.4732 21.5823C47.3525 19.7468 47.2874 17.5949 46.2778 15.8386L38.999 3.06962C37.908 1.17089 35.84 0 33.5766 0H17.4722C15.2088 0 13.1408 1.17089 12.0661 3.0538L4.75479 15.8703C3.74521 17.6424 3.66379 19.7943 4.55939 21.6297C4.75479 22.0253 5.03161 22.3892 5.40613 22.6899L7.27874 24.2247C8.22318 25 8.98851 25.9494 9.52586 27.0095L3.98946 30.7278C3.54981 31.0285 3.28927 31.519 3.28927 32.0411L0 45H3.27299ZM32.8602 17.943C32.8602 21.3924 29.978 24.193 26.4282 24.193H24.5718C21.022 24.193 18.1398 21.3924 18.1398 17.943V12.2468H32.8602V17.943ZM36.1331 17.943V17.8797C36.1983 17.8323 36.2634 17.7848 36.3123 17.7215L38.2337 15.8544C38.8688 15.2373 38.8688 14.2247 38.2337 13.6076C37.6638 13.0538 36.7682 12.9905 36.1331 13.4335V10.7595L36.8333 5.83861L43.3956 17.3576C43.9004 18.2437 43.9329 19.2722 43.5096 20.1899L41.3927 22.0253C38.7711 24.288 37.273 27.5475 37.2893 30.9652C37.2893 30.9968 37.2893 31.0127 37.273 31.0285C36.9636 31.3291 36.5402 31.519 36.0843 31.519C35.205 31.519 34.4885 30.8703 34.4885 30.0633V23.5127C34.4885 23.4335 34.4722 23.3386 34.4722 23.2595C35.5144 21.7405 36.1331 19.9051 36.1331 17.943ZM17.4722 3.18038H33.5766C33.6906 3.18038 33.7883 3.18038 33.9023 3.1962L33.0718 9.06646H27.1446V7.21519C27.1446 6.32911 26.4119 5.61709 25.5 5.61709C24.5881 5.61709 23.8554 6.32911 23.8554 7.21519V9.06646H17.9282L17.0977 3.1962C17.228 3.1962 17.342 3.18038 17.4722 3.18038ZM9.36303 21.7722L7.49042 20.2532C7.05077 19.3354 7.09962 18.307 7.60441 17.4209L14.1667 5.91772L14.8669 10.7595V13.4177C14.2318 12.9747 13.3362 13.038 12.7663 13.5918C12.1312 14.2089 12.1312 15.2215 12.7663 15.8386L14.6715 17.7215C14.7366 17.7848 14.7854 17.8323 14.8506 17.8797V17.943C14.8506 19.9367 15.4856 21.788 16.5766 23.3228C16.5278 23.4652 16.5115 23.6076 16.5115 23.7658V30.1108C16.5115 30.9019 15.8113 31.5348 14.9483 31.5348C14.9157 31.5348 14.8994 31.5348 14.8669 31.5348C14.2481 31.5032 13.727 30.981 13.6944 30.3481V30.3323C13.5479 27.0253 11.9684 23.9082 9.36303 21.7722Z" fill="url(#paint0_linear)"/>
</g>
<defs>
<linearGradient id="paint0_linear" x1="51.0163" y1="-1.65836e-05" x2="-3.66602" y2="5.01331" gradientUnits="userSpaceOnUse">
<stop stop-color="#2FDFD4"/>
<stop offset="0.478626" stop-color="#2FCDDF"/>
<stop offset="1" stop-color="#59AFFF"/>
</linearGradient>
<clipPath id="clip0">
<rect width="51" height="45" fill="white"/>
</clipPath>
</defs>
</svg>
