<svg width="100" height="100" viewBox="0 0 100 100" fill="none" xmlns="http://www.w3.org/2000/svg">
<rect x="1.5" y="1.5" width="97" height="97" rx="48.5" fill="#1F2029" stroke="#3B3D4A" stroke-width="3"/>
<g clip-path="url(#clip0)">
<path d="M57.7085 36.6722L53.9259 36.6665C49.6763 36.6665 46.9305 39.4863 46.9305 43.8442V47.154H43.1252C42.7948 47.154 42.5327 47.4217 42.5327 47.7464V52.543C42.5327 52.8734 42.8005 53.1354 43.1252 53.1354H46.9305V65.235C46.9305 65.5654 47.1982 65.8275 47.523 65.8275H52.4847C52.8151 65.8275 53.0772 65.5597 53.0772 65.235V53.1411H57.5262C57.8566 53.1411 58.1187 52.8734 58.1187 52.5487V47.7521C58.1187 47.5926 58.056 47.4445 57.9421 47.3306C57.8281 47.2166 57.68 47.154 57.5205 47.154H53.0715V44.3512C53.0715 43.0011 53.3905 42.3175 55.1507 42.3175H57.6971C58.0275 42.3175 58.2896 42.0498 58.2896 41.7251V37.2646C58.3009 36.9399 58.0332 36.6722 57.7085 36.6722Z" fill="url(#paint0_linear)"/>
</g>
<defs>
<linearGradient id="paint0_linear" x1="58.2899" y1="36.6665" x2="41.2909" y2="37.4093" gradientUnits="userSpaceOnUse">
<stop stop-color="#2FDFD4"/>
<stop offset="0.478626" stop-color="#2FCDDF"/>
<stop offset="1" stop-color="#59AFFF"/>
</linearGradient>
<clipPath id="clip0">
<rect x="35.8335" y="36.6665" width="29.1667" height="29.1667" fill="white"/>
</clipPath>
</defs>
</svg>
