<svg width="100" height="100" viewBox="0 0 100 100" fill="none" xmlns="http://www.w3.org/2000/svg">
<rect width="100" height="100" rx="50" fill="url(#paint0_linear)"/>
<g clip-path="url(#clip0)">
<path d="M57.7085 36.6724L53.9259 36.6667C49.6763 36.6667 46.9305 39.4865 46.9305 43.8444V47.1542H43.1252C42.7948 47.1542 42.5327 47.4219 42.5327 47.7466V52.5432C42.5327 52.8736 42.8005 53.1356 43.1252 53.1356H46.9305V65.2352C46.9305 65.5656 47.1982 65.8277 47.523 65.8277H52.4847C52.8151 65.8277 53.0772 65.5599 53.0772 65.2352V53.1413H57.5262C57.8566 53.1413 58.1187 52.8736 58.1187 52.5488V47.7523C58.1187 47.5928 58.056 47.4447 57.9421 47.3307C57.8281 47.2168 57.68 47.1542 57.5205 47.1542H53.0715V44.3514C53.0715 43.0013 53.3905 42.3177 55.1507 42.3177H57.6971C58.0275 42.3177 58.2896 42.05 58.2896 41.7253V37.2648C58.3009 36.9401 58.0332 36.6724 57.7085 36.6724Z" fill="#1F2029"/>
</g>
<defs>
<linearGradient id="paint0_linear" x1="100" y1="-3.68525e-05" x2="-7.38464" y2="8.68407" gradientUnits="userSpaceOnUse">
<stop stop-color="#2FDFD4"/>
<stop offset="0.478626" stop-color="#2FCDDF"/>
<stop offset="1" stop-color="#59AFFF"/>
</linearGradient>
<clipPath id="clip0">
<rect x="35.8333" y="36.6667" width="29.1667" height="29.1667" fill="white"/>
</clipPath>
</defs>
</svg>
