<svg width="100" height="100" viewBox="0 0 100 100" fill="none" xmlns="http://www.w3.org/2000/svg">
<rect width="100" height="100" rx="50" fill="url(#paint0_linear)"/>
<g clip-path="url(#clip0)">
<path d="M56.1174 35.8335H43.0487C38.6107 35.8335 35 39.4443 35 43.8824V56.9511C35 61.3893 38.6107 65 43.0487 65H56.1174C60.5558 65 64.1665 61.3892 64.1665 56.9511V43.8824C64.1667 39.4443 60.5558 35.8335 56.1174 35.8335ZM61.5789 56.9511C61.5789 59.9624 59.1289 62.4122 56.1176 62.4122H43.0487C40.0376 62.4124 37.5878 59.9624 37.5878 56.9511V43.8824C37.5878 40.8712 40.0376 38.4213 43.0487 38.4213H56.1174C59.1288 38.4213 61.5787 40.8712 61.5787 43.8824V56.9511H61.5789Z" fill="#333333"/>
<path d="M49.5833 42.9019C45.4392 42.9019 42.0679 46.2732 42.0679 50.4173C42.0679 54.5612 45.4392 57.9325 49.5833 57.9325C53.7274 57.9325 57.0988 54.5612 57.0988 50.4173C57.0988 46.2732 53.7274 42.9019 49.5833 42.9019ZM49.5833 55.3445C46.8663 55.3445 44.6557 53.1342 44.6557 50.4172C44.6557 47.7 46.8662 45.4895 49.5833 45.4895C52.3005 45.4895 54.511 47.7 54.511 50.4172C54.511 53.1342 52.3003 55.3445 49.5833 55.3445Z" fill="#333333"/>
<path d="M57.4138 40.7075C56.9153 40.7075 56.4255 40.9094 56.0734 41.263C55.7195 41.615 55.5161 42.1049 55.5161 42.6052C55.5161 43.104 55.7197 43.5938 56.0734 43.9474C56.4253 44.2994 56.9153 44.503 57.4138 44.503C57.9141 44.503 58.4024 44.2994 58.756 43.9474C59.1097 43.5938 59.3116 43.1038 59.3116 42.6052C59.3116 42.1049 59.1097 41.615 58.756 41.263C58.4041 40.9094 57.9141 40.7075 57.4138 40.7075Z" fill="#333333"/>
</g>
<defs>
<linearGradient id="paint0_linear" x1="100" y1="-3.68525e-05" x2="-7.38464" y2="8.68407" gradientUnits="userSpaceOnUse">
<stop stop-color="#2FDFD4"/>
<stop offset="0.478626" stop-color="#2FCDDF"/>
<stop offset="1" stop-color="#59AFFF"/>
</linearGradient>
<clipPath id="clip0">
<rect x="35" y="35.8335" width="29.1667" height="29.1667" fill="white"/>
</clipPath>
</defs>
</svg>
