<svg width="100" height="100" viewBox="0 0 100 100" fill="none" xmlns="http://www.w3.org/2000/svg">
<rect x="1.5" y="1.5" width="97" height="97" rx="48.5" fill="#1F2029" stroke="#3B3D4A" stroke-width="3"/>
<g clip-path="url(#clip0)">
<path d="M67.5 40.6999C66.396 41.1889 65.211 41.5219 63.966 41.6689C65.238 40.9069 66.21 39.7009 66.672 38.2669C65.481 38.9719 64.164 39.4849 62.76 39.7609C61.638 38.5639 60.039 37.8169 58.269 37.8169C54.87 37.8169 52.116 40.5739 52.116 43.9699C52.116 44.4529 52.17 44.9209 52.275 45.3709C47.16 45.1129 42.624 42.6649 39.591 38.9389C39.06 39.8479 38.757 40.9039 38.757 42.0349C38.757 44.1709 39.843 46.0549 41.493 47.1559C40.485 47.1229 39.537 46.8439 38.706 46.3849V46.4629C38.706 49.4449 40.827 51.9319 43.641 52.4989C43.125 52.6369 42.582 52.7149 42.018 52.7149C41.622 52.7149 41.235 52.6759 40.86 52.6009C41.646 55.0429 43.92 56.8219 46.611 56.8699C44.505 58.5199 41.85 59.5009 38.967 59.5009C38.469 59.5009 37.98 59.4709 37.5 59.4169C40.224 61.1659 43.458 62.1859 46.932 62.1859C58.254 62.1859 64.44 52.8079 64.44 44.6779L64.419 43.8799C65.631 43.0159 66.678 41.9329 67.5 40.6999Z" fill="url(#paint0_linear)"/>
</g>
<defs>
<linearGradient id="paint0_linear" x1="67.5" y1="37.8169" x2="35.3922" y2="41.0134" gradientUnits="userSpaceOnUse">
<stop stop-color="#2FDFD4"/>
<stop offset="0.478626" stop-color="#2FCDDF"/>
<stop offset="1" stop-color="#59AFFF"/>
</linearGradient>
<clipPath id="clip0">
<rect x="37.5" y="35" width="30" height="30" fill="white"/>
</clipPath>
</defs>
</svg>
