<svg width="100" height="100" viewBox="0 0 100 100" fill="none" xmlns="http://www.w3.org/2000/svg">
<rect width="100" height="100" rx="50" fill="url(#paint0_linear)"/>
<path d="M64.965 43.0223C64.6049 41.6836 63.5493 40.6282 62.2108 40.2677C59.7653 39.5986 49.9835 39.5986 49.9835 39.5986C49.9835 39.5986 40.202 39.5986 37.7566 40.2424C36.4438 40.6025 35.3625 41.6837 35.0024 43.0223C34.3589 45.4675 34.3589 50.5386 34.3589 50.5386C34.3589 50.5386 34.3589 55.6352 35.0024 58.0549C35.3629 59.3935 36.4181 60.4488 37.7568 60.8093C40.2278 61.4786 49.9839 61.4786 49.9839 61.4786C49.9839 61.4786 59.7653 61.4786 62.2108 60.8349C63.5495 60.4746 64.6049 59.4192 64.9653 58.0806C65.6087 55.6352 65.6087 50.5644 65.6087 50.5644C65.6087 50.5644 65.6344 45.4675 64.965 43.0223V43.0223ZM46.8692 55.2234V45.8538L55.0033 50.5386L46.8692 55.2234Z" fill="#333333"/>
<defs>
<linearGradient id="paint0_linear" x1="100" y1="-3.68525e-05" x2="-7.38464" y2="8.68407" gradientUnits="userSpaceOnUse">
<stop stop-color="#2FDFD4"/>
<stop offset="0.478626" stop-color="#2FCDDF"/>
<stop offset="1" stop-color="#59AFFF"/>
</linearGradient>
</defs>
</svg>
